# xmcd
#
# Track frame offsets:
#	150
#	18842
#	35786
#	53363
#	72428
#	93782
#	109034
#	124106
#	138979
#	155961
#	172394
#	191086
#	208030
#	225607
#	244672
#	266026
#	281278
#	296350
#	311223
#	328205
#
# Disc length: 4593 seconds
#
# Revision: 2
# Processed by: cddbd v1.5.2PL0 Copyright (c) Steve Scherf et al.
# Submitted via: audiograbber 1.83.01
#
DISCID=2e11ef14
DTITLE=THC0709 - Top Hits Country (THC)
DYEAR=2007
DGENRE=Karaoke
TTITLE0=McGraw, Tim - If You're Reading This (W - Vocals)
TTITLE1=McEntire, Reba and Kelly Clarkson - Because Of You (W - Vocals)
TTITLE2=Sugarland - Everyday America (W - Vocals)
TTITLE3=Hill, Faith - Lost (W - Vocals)
TTITLE4=Anderson, Keith - Sunday Morning In America (W - Vocals)
TTITLE5=Bentley, Dierks - Free And Easy (Down The Road I Go) (W - Vocals)
TTITLE6=Brooks and Dunn - Proud Of The House We Built (W - Vocals)
TTITLE7=Vassar, Phil - This Is My Life (W - Vocals)
TTITLE8=Rimes, LeAnn - Nothin' Better To Do (W - Vocals)
TTITLE9=Chesney, Kenny - Never Wanted Nothing More (W - Vocals)
TTITLE10=Tim McGraw - If You're Reading This (THC)
TTITLE11=Reba McEntire and Kelly Clarkson - Because Of You (THC)
TTITLE12=Sugarland - Everyday America (THC)
TTITLE13=Faith Hill - Lost (THC)
TTITLE14=Keith Anderson - Sunday Morning In America (THC)
TTITLE15=Dierks Bentley - Free And Easy (Down The Road I Go) (THC)
TTITLE16=Brooks and Dunn - Proud Of The House We Built (THC)
TTITLE17=Phil Vassar - This Is My Life (THC)
TTITLE18=LeAnn Rimes - Nothin' Better To Do (THC)
TTITLE19=Kenny Chesney - Never Wanted Nothing More (THC)
EXTD=
EXTT0=
EXTT1=
EXTT2=
EXTT3=
EXTT4=
EXTT5=
EXTT6=
EXTT7=
EXTT8=
EXTT9=
EXTT10=
EXTT11=
EXTT12=
EXTT13=
EXTT14=
EXTT15=
EXTT16=
EXTT17=
EXTT18=
EXTT19=
PLAYORDER=
